<?xml version="1.0" encoding="UTF-8"?>
<svg width="128px" height="128px" viewBox="0 0 512 512" version="1.1" xmlns="http://www.w3.org/2000/svg" xmlns:xlink="http://www.w3.org/1999/xlink">
    <!-- Generator: Sketch 46.2 (44496) - http://www.bohemiancoding.com/sketch -->
    <title>adaptive-ege-1-1</title>
    <desc>Created with Sketch.</desc>
    <defs>
        <linearGradient x1="-25.0334766%" y1="-14.5504687%" x2="132.560273%" y2="121.025703%" id="linearGradient-1">
            <stop stop-color="#FFB091" offset="0%"></stop>
            <stop stop-color="#EB7070" offset="52%"></stop>
            <stop stop-color="#D9351C" offset="100%"></stop>
        </linearGradient>
    </defs>
    <g id="Page-1" stroke="none" stroke-width="1" fill="none" fill-rule="evenodd">
        <g id="adaptive-ege-1-1" fill-rule="nonzero">
            <rect id="Rectangle-path" fill="url(#linearGradient-1)" x="0" y="0" width="512" height="512" rx="100"></rect>
            <g id="Group" transform="translate(142.000000, 91.000000)">
                <g transform="translate(14.000000, 228.000000)" id="Shape" fill="#FFFFFF">
                    <polygon points="0.4 83.6 0.4 2.6 54.9 2.6 54.9 19 19.3 19 19.3 34.3 52.9 34.3 52.9 50 19.3 50 19.3 66.8 56.9 66.8 56.9 83.6"></polygon>
                    <polygon points="120.8 2.6 120.8 19.6 89.4 19.6 89.4 83.6 69.7 83.6 69.7 2.6"></polygon>
                    <path d="M124.3,72.6 L136.5,60.4 C138.9,63.1 142,65.1 145.5,66.2 C149,67.3 152.6,67.8 156.3,67.8 C158.6,67.8 160.9,67.5 163.2,66.8 C165.6,66.2 167.8,65.1 169.8,63.8 C171.9,62.3 173.8,60.5 175.3,58.4 C177,55.9 178.2,53.2 178.7,50.2 L140.2,50.2 L140.2,34.9 L178.3,34.9 C177.6,32.2 176.5,29.7 174.9,27.4 C173.5,25.4 171.7,23.6 169.6,22.2 C167.6,20.8 165.4,19.8 163.1,19.1 C160.8,18.4 158.4,18.1 156.1,18.1 C152.3,18 148.4,18.8 144.9,20.3 C141.9,21.7 139.4,23.8 137.6,26.5 L126,13.3 C129.4,9.1 133.8,5.8 138.8,3.8 C144.8,1.4 151.1,0.2 157.6,0.4 C163.6,0.3 169.5,1.4 175,3.6 C185.1,7.6 192.9,15.8 196.5,26 C198.5,31.5 199.4,37.2 199.4,43 C199.5,48.8 198.4,54.6 196.2,60 C194.1,65 191.1,69.6 187.2,73.3 C183.2,77.2 178.5,80.2 173.3,82.2 C167.6,84.4 161.5,85.5 155.3,85.4 C148.8,85.6 142.4,84.4 136.4,82 C131.8,80.1 127.5,76.8 124.3,72.6 Z"></path>
                </g>
                <rect id="Rectangle-path" fill="#FFF2CA" x="77.8" y="138" width="88.6" height="24"></rect>
                <rect id="Rectangle-path" fill="#FFF2CA" x="110.1" y="0.1" width="24" height="24.1"></rect>
                <polygon id="Shape" fill="#FFCC66" points="134.1 83.1 110.1 59.6 110.1 35.5 134.1 35.5"></polygon>
                <path d="M228,136.9 C226.7,137.2 225.5,137.9 224.4,138.7 C223.3,139.7 222.4,141 221.8,142.4 C221.1,144.4 220.7,146.5 220.8,148.6 L220.8,176.3 C220.8,183.8 218.8,189.8 214.7,194.2 C210.6,198.6 205.1,200.8 198.1,200.8 L184.5,200.8 L184.5,183.3 L192.3,183.3 C195.5,183.3 197.6,182.2 198.5,180.1 C199.4,178 199.9,175.6 199.9,173.3 L199.9,146.2 C199.8,143.1 200.4,140 201.6,137.1 C202.6,134.9 203.9,133 205.7,131.4 C207.2,130 208.9,129 210.8,128.2 C212.3,127.6 213.9,127.2 215.4,127 L215.4,126.7 C213.8,126.5 212.2,126.1 210.8,125.4 C208.9,124.6 207.2,123.5 205.7,122.1 C204,120.5 202.6,118.6 201.6,116.5 C200.4,113.9 199.9,111.1 199.9,108.3 L199.9,80.5 C199.9,78.2 199.4,75.8 198.5,73.7 C197.6,71.6 195.5,70.5 192.3,70.5 L184.5,70.5 L184.5,53.1 L198.1,53.1 C205.1,53.1 210.6,55.3 214.7,59.7 C218.8,64.1 220.9,70.1 220.8,77.6 L220.8,106 C220.7,108 221.1,110 221.8,111.8 C222.3,113.2 223.2,114.4 224.4,115.4 C225.5,116.2 226.7,116.8 228,117.2 C229.3,117.5 230.7,117.7 232,117.7 L232,136 C230.6,136.4 229.3,136.6 228,136.9 Z" id="Shape" fill="#FFFFFF"></path>
                <rect id="Rectangle-path" fill="#FFCC66" transform="translate(40.371120, 128.805140) rotate(-45.000000) translate(-40.371120, -128.805140) " x="-3.92845516" y="116.805255" width="88.5991503" height="23.9997698"></rect>
                <rect id="Rectangle-path" fill="#FFFFFF" transform="translate(40.429160, 83.183480) rotate(-45.000000) translate(-40.429160, -83.183480) " x="28.4292751" y="38.8839048" width="23.9997698" height="88.5991503"></rect>
            </g>
        </g>
    </g>
</svg>