<?xml version="1.0" encoding="utf-8"?>
<!-- Generator: Adobe Illustrator 16.0.0, SVG Export Plug-In . SVG Version: 6.00 Build 0)  -->
<!DOCTYPE svg PUBLIC "-//W3C//DTD SVG 1.1//EN" "http://www.w3.org/Graphics/SVG/1.1/DTD/svg11.dtd">
<svg version="1.1" id="Layer_1" xmlns="http://www.w3.org/2000/svg" xmlns:xlink="http://www.w3.org/1999/xlink" x="0px" y="0px"
	 width="128px" height="128px" viewBox="0 0 512 512" enable-background="new 0 0 512 512" xml:space="preserve">
<path d="M512,407.326C512,465.136,465.136,512,407.326,512H104.674C46.864,512,0,465.136,0,407.326V104.674
	C0,46.864,46.864,0,104.674,0h302.652C465.136,0,512,46.864,512,104.674V407.326z"/>
<path fill="#FFFFFF" d="M116.758,349.424c0,4.283-3.474,7.758-7.758,7.758l-44.243-7.758c-4.284,0-7.757-3.471-7.757-7.754v-9.916
	c0-4.283,3.473-7.754,7.757-7.754H109c4.284,0,7.758,3.471,7.758,7.754V349.424z"/>
<path fill="#FFFFFF" d="M395.953,349.424c0,4.283,3.474,7.758,7.758,7.758l44.243-7.758c4.284,0,7.757-3.471,7.757-7.754v-9.916
	c0-4.283-3.473-7.754-7.757-7.754h-44.243c-4.284,0-7.758,3.471-7.758,7.754V349.424z"/>
<path fill="#FFFFFF" d="M257.922,404.073c-16.306,0-32.548-1.63-48.614-4.89c-4.87-0.988-8.017-5.736-7.028-10.606
	c0.989-4.869,5.739-8.02,10.606-7.028c29.042,5.892,58.731,6.035,88.247,0.425c4.883-0.926,9.59,2.277,10.519,7.159
	c0.928,4.881-2.277,9.591-7.159,10.519C288.984,402.6,273.424,404.073,257.922,404.073z"/>
<path fill="#FFFFFF" d="M402.043,143.291c0-4.577-3.711-8.291-8.291-8.291H123.168c-4.581,0-8.289,3.714-8.289,8.291L90,249.706
	c0,4.579,3.711,8.294,8.291,8.294H123v30.177c0,3.865,3.134,6.995,6.996,6.995L167.167,258h251.462c4.581,0,8.291-3.715,8.291-8.294
	L402.043,143.291z"/>
<g>
	<path d="M186.338,158.062h-52.2c-0.829,0-1.5,0.671-1.5,1.5v61.596c0,0.829,0.671,1.5,1.5,1.5h14.79c0.829,0,1.5-0.671,1.5-1.5
		v-47.568h19.62v47.568c0,0.829,0.671,1.5,1.5,1.5h14.79c0.829,0,1.5-0.671,1.5-1.5v-61.596
		C187.838,158.733,187.167,158.062,186.338,158.062z"/>
	<path d="M287.953,207.129h-9.924l-18.078-48.095c-0.219-0.585-0.779-0.972-1.404-0.972h-14.442c-0.623,0-1.181,0.385-1.402,0.968
		l-18.251,48.1h-9.578c-0.829,0-1.5,0.671-1.5,1.5v24.621c0,0.829,0.671,1.5,1.5,1.5h12.18c0.829,0,1.5-0.671,1.5-1.5v-10.593h45.72
		v10.593c0,0.829,0.672,1.5,1.5,1.5h12.18c0.828,0,1.5-0.671,1.5-1.5v-24.621C289.453,207.801,288.781,207.129,287.953,207.129z
		 M242.844,207.129l8.134-25.864l8.135,25.864H242.844z"/>
	<path d="M382.781,207.129h-9.922l-18.078-48.095c-0.221-0.585-0.779-0.972-1.404-0.972h-14.443c-0.623,0-1.182,0.385-1.402,0.968
		l-18.25,48.1h-9.578c-0.828,0-1.5,0.671-1.5,1.5v24.621c0,0.829,0.672,1.5,1.5,1.5h12.18c0.828,0,1.5-0.671,1.5-1.5v-10.593h45.719
		v10.593c0,0.829,0.672,1.5,1.5,1.5h12.18c0.828,0,1.5-0.671,1.5-1.5v-24.621C384.281,207.801,383.609,207.129,382.781,207.129z
		 M337.672,207.129l8.135-25.864l8.135,25.864H337.672z"/>
</g>
<circle fill="#FFDA3E" cx="402" cy="108.001" r="76"/>
<g>
	<path d="M354.456,102.107h-10.295l6.461-19.24h8.945L354.456,102.107z"/>
	<path d="M383.28,133.135v-36.92l-9.372,7.242l-6.177-8.449l16.537-12.141h10.869v50.268H383.28z"/>
	<path d="M431.489,133.135h-13.845l20.377-40.044h-23.785V82.867h36.494v9.514L431.489,133.135z"/>
</g>
</svg>
