<?xml version="1.0" encoding="UTF-8"?>
<svg width="128px" height="128px" viewBox="0 0 512 512" version="1.1" xmlns="http://www.w3.org/2000/svg" xmlns:xlink="http://www.w3.org/1999/xlink">
	<!-- Generator: Sketch 47 (45396) - http://www.bohemiancoding.com/sketch -->
	<title>pdd-icon</title>
	<desc>Created with Sketch.</desc>
	<g id="Page-1" stroke="none" stroke-width="1" fill="none" fill-rule="evenodd">
		<g id="pdd-icon">
			<rect id="Rectangle" fill="#1B1B1C" x="0" y="0" width="512" height="512" rx="100"></rect>
			<path d="M116.758,349.424 C116.758,353.707 113.284,357.182 109,357.182 L64.757,349.424 C60.473,349.424 57,345.953 57,341.67 L57,331.754 C57,327.471 60.473,324 64.757,324 L109,324 C113.284,324 116.758,327.471 116.758,331.754 L116.758,349.424 Z" id="Shape" fill="#F6F5F3" fill-rule="nonzero"></path>
			<path d="M395.953,349.424 C395.953,353.707 399.427,357.182 403.711,357.182 L447.954,349.424 C452.238,349.424 455.711,345.953 455.711,341.67 L455.711,331.754 C455.711,327.471 452.238,324 447.954,324 L403.711,324 C399.427,324 395.953,327.471 395.953,331.754 L395.953,349.424 Z" id="Shape" fill="#F6F5F3" fill-rule="nonzero"></path>
			<path d="M257.922,404.073 C241.616,404.073 225.374,402.443 209.308,399.183 C204.438,398.195 201.291,393.447 202.28,388.577 C203.269,383.708 208.019,380.557 212.886,381.549 C241.928,387.441 271.617,387.584 301.133,381.974 C306.016,381.048 310.723,384.251 311.652,389.133 C312.58,394.014 309.375,398.724 304.493,399.652 C288.984,402.6 273.424,404.073 257.922,404.073 Z" id="Shape" fill="#F6F5F3" fill-rule="nonzero"></path>
			<path d="M402.043,143.291 C402.043,138.714 398.332,135 393.752,135 L123.168,135 C118.587,135 114.879,138.714 114.879,143.291 L90,249.706 C90,254.285 93.711,258 98.291,258 L123,258 L123,288.177 C123,292.042 126.134,295.172 129.996,295.172 L167.167,258 L418.629,258 C423.21,258 426.92,254.285 426.92,249.706 L402.043,143.291 Z" id="Shape" fill="#F6F5F3" fill-rule="nonzero"></path>
			<g id="Group" transform="translate(132.000000, 158.000000)" fill-rule="nonzero" fill="#1B1B1C">
				<path d="M54.338,0.062 L2.138,0.062 C1.309,0.062 0.638,0.733 0.638,1.562 L0.638,63.158 C0.638,63.987 1.309,64.658 2.138,64.658 L16.928,64.658 C17.757,64.658 18.428,63.987 18.428,63.158 L18.428,15.59 L38.048,15.59 L38.048,63.158 C38.048,63.987 38.719,64.658 39.548,64.658 L54.338,64.658 C55.167,64.658 55.838,63.987 55.838,63.158 L55.838,1.562 C55.838,0.733 55.167,0.062 54.338,0.062 Z" id="Shape"></path>
				<path d="M155.953,49.129 L146.029,49.129 L127.951,1.034 C127.732,0.449 127.172,0.062 126.547,0.062 L112.105,0.062 C111.482,0.062 110.924,0.447 110.703,1.03 L92.452,49.13 L82.874,49.13 C82.045,49.13 81.374,49.801 81.374,50.63 L81.374,75.251 C81.374,76.08 82.045,76.751 82.874,76.751 L95.054,76.751 C95.883,76.751 96.554,76.08 96.554,75.251 L96.554,64.658 L142.274,64.658 L142.274,75.251 C142.274,76.08 142.946,76.751 143.774,76.751 L155.954,76.751 C156.782,76.751 157.454,76.08 157.454,75.251 L157.454,50.63 C157.453,49.801 156.781,49.129 155.953,49.129 Z M110.844,49.129 L118.978,23.265 L127.113,49.129 L110.844,49.129 Z" id="Shape"></path>
				<path d="M250.781,49.129 L240.859,49.129 L222.781,1.034 C222.56,0.449 222.002,0.062 221.377,0.062 L206.934,0.062 C206.311,0.062 205.752,0.447 205.532,1.03 L187.282,49.13 L177.704,49.13 C176.876,49.13 176.204,49.801 176.204,50.63 L176.204,75.251 C176.204,76.08 176.876,76.751 177.704,76.751 L189.884,76.751 C190.712,76.751 191.384,76.08 191.384,75.251 L191.384,64.658 L237.103,64.658 L237.103,75.251 C237.103,76.08 237.775,76.751 238.603,76.751 L250.783,76.751 C251.611,76.751 252.283,76.08 252.283,75.251 L252.283,50.63 C252.281,49.801 251.609,49.129 250.781,49.129 Z M205.672,49.129 L213.807,23.265 L221.942,49.129 L205.672,49.129 Z" id="Shape"></path>
			</g>
			<circle id="Oval" fill="#FFDA3E" fill-rule="nonzero" cx="402" cy="108.001" r="76"></circle>
			<g id="Group" transform="translate(326.000000, 58.000000)">
				<polygon id="Shape" fill="#000000" fill-rule="nonzero" points="28.456 44.107 18.161 44.107 24.622 24.867 33.567 24.867"></polygon>
				<path d="M68.8916016,75 L58.3300781,75 L58.3300781,46.0839844 L58.4326172,41.3330078 L58.6035156,36.1376953 C56.8489496,37.8922614 55.6298862,39.042966 54.9462891,39.5898438 L49.2041016,44.2041016 L44.1113281,37.8466797 L60.2099609,25.0292969 L68.8916016,25.0292969 L68.8916016,75 Z M106.029297,24.3798828 C110.814477,24.3798828 114.671047,25.4679253 117.599121,27.644043 C120.527196,29.8201606 121.991211,32.7538878 121.991211,36.4453125 C121.991211,38.9974086 121.284838,41.2703351 119.87207,43.2641602 C118.459303,45.2579852 116.18068,47.0410078 113.036133,48.6132812 C116.773131,50.6184996 119.456209,52.7091363 121.085449,54.8852539 C122.714689,57.0613716 123.529297,59.4482292 123.529297,62.0458984 C123.529297,66.1474814 121.922868,69.4457883 118.709961,71.940918 C115.497054,74.4360476 111.270208,75.6835938 106.029297,75.6835938 C100.56052,75.6835938 96.2653151,74.521496 93.1435547,72.1972656 C90.0217943,69.8730353 88.4609375,66.580425 88.4609375,62.3193359 C88.4609375,59.4710144 89.2185797,56.9417428 90.7338867,54.7314453 C92.2491938,52.5211478 94.6816239,50.5729251 98.03125,48.8867188 C95.1829285,47.0865795 93.1321677,45.1611431 91.8789062,43.1103516 C90.6256448,41.0595601 89.9990234,38.8151164 89.9990234,36.3769531 C89.9990234,32.7994613 91.4801284,29.90561 94.4423828,27.6953125 C97.4046372,25.485015 101.266903,24.3798828 106.029297,24.3798828 Z M98.2363281,61.7041016 C98.2363281,63.6637468 98.919915,65.1904242 100.287109,66.2841797 C101.654304,67.3779352 103.522775,67.9248047 105.892578,67.9248047 C108.513034,67.9248047 110.47265,67.3608455 111.771484,66.2329102 C113.070319,65.1049748 113.719727,63.6181733 113.719727,61.7724609 C113.719727,60.2457606 113.076016,58.8159246 111.788574,57.4829102 C110.501133,56.1498957 108.410496,54.7314528 105.516602,53.2275391 C100.663062,55.4606231 98.2363281,58.2861157 98.2363281,61.7041016 Z M105.960938,32.1044922 C104.160798,32.1044922 102.708176,32.5659134 101.603027,33.4887695 C100.497879,34.4116257 99.9453125,35.6477787 99.9453125,37.1972656 C99.9453125,38.56446 100.383947,39.7892198 101.26123,40.871582 C102.138514,41.9539442 103.727853,43.0647729 106.029297,44.2041016 C108.262381,43.1559192 109.823238,42.0849664 110.711914,40.9912109 C111.60059,39.8974555 112.044922,38.6328197 112.044922,37.1972656 C112.044922,35.6249921 111.475266,34.3831426 110.335938,33.4716797 C109.196609,32.5602168 107.73829,32.1044922 105.960938,32.1044922 Z" id="18" stroke="#1B1B1C" fill="#1B1B1C"></path>
			</g>
		</g>
	</g>
</svg>