<svg viewBox="0 0 34 34" height="64px" width="64px" xmlns="http://www.w3.org/2000/svg"><g transform="translate(1 1)" stroke="#263238" fill="none" fill-rule="evenodd" stroke-linecap="round" stroke-linejoin="round"><path d="M2.962 24.477c-.06-2.762-.084-7.24 0-10.002l.047-1.137c.152-2.757 2.48-5.375 5.215-5.761l2.814-.3c2.75-.131 7.213-.184 9.978.009l2.362.259c2.72.442 5.091 3.025 5.262 5.785l.058 1.151c.074 2.759.103 7.231 0 9.99l-.058 1.15c-.187 2.754-2.544 5.415-5.26 5.834l-2.559.294c-2.75.139-7.211.197-9.976 0l-2.654-.304c-2.71-.463-5.043-3.064-5.182-5.831l-.047-1.137z" fill="#76B6FF"></path><ellipse fill="#FFF" cx="9.663" cy="14.88" rx="2.376" ry="2.4"></ellipse><ellipse fill="#FFF" cx="22.02" cy="14.88" rx="2.376" ry="2.4"></ellipse><rect fill="#FFF" x="9.505" y="24.32" width="12.673" height="3.2" rx="1.6"></rect><path d="M12.5 24.32v3.216M15.5 24.32v3.216M18.5 24.32v3.216M15.5 6.884V3.353" fill="#E2F3FB"></path><ellipse fill="#E2F3FB" cx="15.842" cy="1.6" rx="1.584" ry="1.6"></ellipse><path d="M15.5 15.04v6.4" fill="#E2F3FB"></path><path d="M2.945 14.403a1.956 1.956 0 0 0-.112-.003H1.92A1.92 1.92 0 0 0 0 16.32v2.56c0 1.064.86 1.92 1.92 1.92H2.857a134.58 134.58 0 0 1 .087-6.397zM28.832 14.403l.111-.003h.914c1.059 0 1.92.86 1.92 1.92v2.56c0 1.064-.86 1.92-1.92 1.92H28.919a134.58 134.58 0 0 0-.087-6.397z" fill="#DBA3FF"></path></g></svg>