<?xml version="1.0" encoding="UTF-8"?>
<svg width="128px" height="128px" viewBox="0 0 512 512" version="1.1" xmlns="http://www.w3.org/2000/svg" xmlns:xlink="http://www.w3.org/1999/xlink">
    <!-- Generator: Sketch 46.2 (44496) - http://www.bohemiancoding.com/sketch -->
    <title>04</title>
    <desc>Created with Sketch.</desc>
    <defs>
        <linearGradient x1="-25.0390625%" y1="25.9628906%" x2="97.8808594%" y2="65.3359375%" id="linearGradient-1">
            <stop stop-color="#92F7E5" offset="0%"></stop>
            <stop stop-color="#5EAEEE" offset="100%"></stop>
        </linearGradient>
    </defs>
    <g id="Page-1" stroke="none" stroke-width="1" fill="none" fill-rule="evenodd">
        <g id="04" fill-rule="nonzero">
            <rect id="Rectangle-path" fill="url(#linearGradient-1)" x="0" y="0" width="512" height="512" rx="104"></rect>
            <rect id="Rectangle-path" fill="#2485CE" x="268.73" y="168.58" width="107.16" height="24"></rect>
            <path d="M230.46,299.63 L214.46,299.63 L210.18,288.53 L184.52,288.53 L180.24,299.63 L164.14,299.63 L189.61,238.68 L205,238.68 L230.46,299.63 Z M205.17,275.63 L197.35,255.63 L189.62,275.63 L205.17,275.63 Z" id="Shape" fill="#FFFFFF"></path>
            <path d="M235.74,238.69 L259.85,238.69 C269.85,238.69 277.95,241.51 284.05,247.15 C290.15,252.79 293.24,260.07 293.24,269.15 C293.24,278.23 290.15,285.61 284.05,291.26 C277.95,296.91 269.86,299.63 259.85,299.63 L235.74,299.63 L235.74,238.69 Z M250.74,286.63 L259.29,286.63 C270.66,286.63 278.12,279.72 278.12,269.16 C278.12,258.6 270.66,251.69 259.29,251.69 L250.74,251.69 L250.74,286.63 Z" id="Shape" fill="#FFFFFF"></path>
            <path d="M346.63,238.69 L346.63,277.69 C346.63,284.51 344.36,290.15 339.81,294.52 C335.26,298.89 329.43,301 322.07,301 C308.52,301 299.51,293 297.69,280.53 L312.24,277.62 C312.88,283.9 316.33,287.62 322.06,287.62 C327.79,287.62 331.61,283.53 331.61,277.7 L331.61,238.7 L346.63,238.69 Z" id="Shape" fill="#FFFFFF"></path>
            <path d="M125.26,170.85 L179.77,225.36" id="Shape" fill="#83D6FF"></path>
            <rect id="Rectangle-path" fill="#2485CE" transform="translate(152.512244, 198.110534) rotate(-45.000000) translate(-152.512244, -198.110534) " x="140.512244" y="159.565534" width="24" height="77.09"></rect>
            <path d="M162.92,225.69 L253.14,135.47" id="Shape" fill="#83D6FF"></path>
            <rect id="Rectangle-path" fill="#66FFE2" transform="translate(208.032302, 180.566383) rotate(-45.000000) translate(-208.032302, -180.566383) " x="144.237302" y="168.566383" width="127.59" height="24"></rect>
            <polygon id="Shape" fill="#2485CE" points="200.11 368.64 187.35 368.64 187.35 399.57 177.71 399.57 177.71 368.64 165 368.64 165 360.17 200.16 360.17"></polygon>
            <path d="M237.62,394.51 C229.261539,402.430128 216.168461,402.430128 207.81,394.51 C203.932328,390.636705 201.753505,385.380762 201.753505,379.9 C201.753505,374.419238 203.932328,369.163295 207.81,365.29 C216.137869,357.293478 229.292131,357.293478 237.62,365.29 C241.532402,369.144753 243.735279,374.40764 243.735279,379.9 C243.735279,385.39236 241.532402,390.655247 237.62,394.51 L237.62,394.51 Z M230.8,371.51 C228.667802,369.365932 225.768788,368.160404 222.745,368.160404 C219.721212,368.160404 216.822198,369.365932 214.69,371.51 C212.521325,373.761815 211.356222,376.795412 211.46,379.92 C211.357615,383.026552 212.523697,386.041036 214.69,388.27 C219.162919,392.659682 226.327081,392.659682 230.8,388.27 C232.966303,386.041036 234.132385,383.026552 234.03,379.92 C234.128328,376.80227 232.963622,373.77692 230.8,371.53 L230.8,371.51 Z" id="Shape" fill="#2485CE"></path>
            <polygon id="Shape" fill="#2485CE" points="279.9 391.22 279.9 399.57 249.21 399.57 249.21 360.18 279.72 360.18 279.72 368.53 258.91 368.53 258.91 375.94 278 375.94 278 383.82 258.91 383.82 258.91 391.23"></polygon>
            <polygon id="Shape" fill="#2485CE" points="295.66 368.7 295.66 377 314.12 377 314.12 385.47 295.66 385.47 295.66 399.58 286 399.58 286 360.18 316.46 360.18 316.46 368.71"></polygon>
            <polygon id="Shape" fill="#2485CE" points="350.23 391.1 350.23 399.57 321.13 399.57 321.13 360.18 330.83 360.18 330.83 391.1"></polygon>
        </g>
    </g>
</svg>