<?xml version="1.0" encoding="UTF-8"?>
<svg width="128px" height="128px" viewBox="0 0 512 512" version="1.1" xmlns="http://www.w3.org/2000/svg" xmlns:xlink="http://www.w3.org/1999/xlink">
    <!-- Generator: Sketch 46.2 (44496) - http://www.bohemiancoding.com/sketch -->
    <title>adj</title>
    <desc>Created with Sketch.</desc>
    <defs>
        <linearGradient x1="-25.0390625%" y1="25.9628906%" x2="97.8808594%" y2="65.3359375%" id="linearGradient-1">
            <stop stop-color="#92F7E5" offset="0%"></stop>
            <stop stop-color="#5EAEEE" offset="100%"></stop>
        </linearGradient>
    </defs>
    <g id="Page-1" stroke="none" stroke-width="1" fill="none" fill-rule="evenodd">
        <g id="adj" fill-rule="nonzero">
            <rect id="Rectangle-path" fill="url(#linearGradient-1)" x="0" y="0" width="512" height="512" rx="104"></rect>
            <g id="Group" transform="translate(79.000000, 137.000000)">
                <rect id="Rectangle-path" fill="#2485CE" x="188.562808" y="52.7992" width="132.301385" height="29.76"></rect>
                <path d="M141.314077,215.3012 L121.560231,215.3012 L116.276077,201.5372 L84.5958462,201.5372 L79.3116923,215.3012 L59.4343846,215.3012 L90.8800385,139.7232 L109.880769,139.7232 L141.314077,215.3012 Z M110.090654,185.5412 L100.435962,160.7412 L90.8923846,185.5412 L110.090654,185.5412 Z" id="Shape" fill="#FFFFFF"></path>
                <path d="M147.832846,139.7356 L177.599423,139.7356 C189.945577,139.7356 199.945962,143.2324 207.477115,150.226 C215.008269,157.2196 218.823231,166.2468 218.823231,177.506 C218.823231,188.7652 215.008269,197.9164 207.477115,204.9224 C199.945962,211.9284 189.957923,215.3012 177.599423,215.3012 L147.832846,215.3012 L147.832846,139.7356 Z M166.352077,199.1812 L176.908038,199.1812 C190.945615,199.1812 200.155846,190.6128 200.155846,177.5184 C200.155846,164.424 190.945615,155.8556 176.908038,155.8556 L166.352077,155.8556 L166.352077,199.1812 Z" id="Shape" fill="#FFFFFF"></path>
                <path d="M284.739346,139.7356 L284.739346,188.0956 C284.739346,196.5524 281.936769,203.546 276.319269,208.9648 C270.701769,214.3836 263.503962,217 254.417192,217 C237.688154,217 226.564269,207.08 224.317269,191.6172 L242.280923,188.0088 C243.071077,195.796 247.3305,200.4088 254.404846,200.4088 C261.479192,200.4088 266.195423,195.3372 266.195423,188.108 L266.195423,139.748 L284.739346,139.7356 Z" id="Shape" fill="#FFFFFF"></path>
                <path d="M11.4325385,55.614 L78.7314231,123.2064" id="Shape" fill="#83D6FF"></path>
                <rect id="Rectangle-path" fill="#2485CE" transform="translate(45.078578, 89.417062) rotate(-45.000000) translate(-45.078578, -89.417062) " x="30.2631936" y="41.6212622" width="29.6307692" height="95.5916"></rect>
                <path d="M57.9281538,123.6156 L169.315154,11.7428" id="Shape" fill="#83D6FF"></path>
                <rect id="Rectangle-path" fill="#66FFE2" transform="translate(113.624496, 67.662315) rotate(-45.000000) translate(-113.624496, -67.662315) " x="34.8622075" y="52.7823149" width="157.524577" height="29.76"></rect>
            </g>
        </g>
    </g>
</svg>
