<?xml version="1.0" encoding="UTF-8"?>
<svg width="128px" height="128px" viewBox="0 0 512 512" version="1.1" xmlns="http://www.w3.org/2000/svg" xmlns:xlink="http://www.w3.org/1999/xlink">
    <!-- Generator: Sketch 46.2 (44496) - http://www.bohemiancoding.com/sketch -->
    <title>02</title>
    <desc>Created with Sketch.</desc>
    <defs>
        <linearGradient x1="10.3242188%" y1="92.9804688%" x2="90.1914062%" y2="6.4609375%" id="linearGradient-1">
            <stop stop-color="#9493B9" offset="0%"></stop>
            <stop stop-color="#92CEE5" offset="100%"></stop>
        </linearGradient>
    </defs>
    <g id="Page-1" stroke="none" stroke-width="1" fill="none" fill-rule="evenodd">
        <g id="02" fill-rule="nonzero">
            <rect id="Rectangle-path" fill="url(#linearGradient-1)" x="0" y="0" width="512" height="512" rx="104"></rect>
            <rect id="Rectangle-path" fill="#FFFFFF" transform="translate(268.542125, 174.978878) rotate(-60.000000) translate(-268.542125, -174.978878) " x="256.542125" y="141.638878" width="24" height="66.68"></rect>
            <rect id="Rectangle-path" fill="#FFFFFF" transform="translate(262.991021, 258.986919) rotate(-30.000000) translate(-262.991021, -258.986919) " x="227.141021" y="246.986919" width="71.7" height="24"></rect>
            <path d="M197,197.05 C164.161149,197.05 137.54,170.428851 137.54,137.59 C137.54,104.751149 164.161149,78.13 197,78.13 C229.838851,78.13 256.46,104.751149 256.46,137.59 C256.426927,170.415142 229.825142,197.016927 197,197.05 Z M197,102.14 C177.415983,102.14 161.54,118.015983 161.54,137.6 C161.54,157.184017 177.415983,173.06 197,173.06 C216.584017,173.06 232.46,157.184017 232.46,137.6 C232.437956,118.025121 216.574879,102.162044 197,102.14 Z" id="Shape" fill="#B0E9FF"></path>
            <path d="M204.57,332.29 C184.456991,332.2486 167.173985,318.005534 163.290237,298.271013 C159.406489,278.536492 170.003632,258.806621 188.601084,251.147014 C207.198536,243.487406 228.616869,250.031279 239.757906,266.776789 C250.898943,283.522299 248.659882,305.805787 234.41,320 L234.41,320 C226.492561,327.900503 215.754932,332.322937 204.57,332.29 L204.57,332.29 Z M204.57,271.93 C196.343382,271.941532 189.148514,277.473078 187.023076,285.420398 C184.897637,293.367717 188.370757,301.75232 195.49336,305.868861 C202.615963,309.985402 211.614871,308.809067 217.44,303 L217.44,303 C222.641674,297.796489 224.196408,289.971827 221.379166,283.174983 C218.561924,276.37814 211.927576,271.947793 204.57,271.95 L204.57,271.93 Z" id="Shape" fill="#FFFFFF"></path>
            <path d="M338.52,274.84 C305.683755,274.828955 279.072639,248.202918 279.080001,215.366671 C279.087364,182.530425 305.710417,155.916323 338.546664,155.920004 C371.382912,155.923684 397.999998,182.543753 398,215.38 C397.96691,248.212943 371.352952,274.817952 338.52,274.84 Z M338.52,179.93 C318.937289,179.941046 303.070802,195.823948 303.080005,215.40666 C303.089209,234.989372 318.970618,250.857353 338.553331,250.849992 C358.136045,250.84263 374.005519,234.962714 374,215.38 C373.977938,195.79732 358.102689,179.93102 338.52,179.92 L338.52,179.93 Z" id="Shape" fill="#B6DEFF"></path>
            <path d="M187.36,379.76 L209.06,379.76 C209.224066,380.94956 209.304264,382.149187 209.3,383.35 C209.467825,388.848706 207.387937,394.17842 203.54,398.11 C199.661626,401.964443 194.365044,404.048345 188.9,403.87 C183.272474,403.985689 177.832198,401.847023 173.79,397.93 C169.887109,394.073907 167.685533,388.819014 167.674267,383.332496 C167.663001,377.845978 169.842978,372.582089 173.73,368.71 C177.699889,364.744071 183.120129,362.575974 188.73,362.71 C192.939705,362.635985 197.089459,363.714921 200.73,365.83 C204.106515,367.767728 206.672894,370.855901 207.96,374.53 L198.61,377.23 C196.67,373.47 193.376667,371.59 188.73,371.59 C185.6937,371.518212 182.768959,372.73534 180.68,374.94 C178.513697,377.168964 177.347615,380.183448 177.45,383.29 C177.379252,386.420259 178.563973,389.448681 180.74,391.7 C182.923774,393.886964 185.910461,395.080193 189,395 C194.12,395 197.94,392.35 199.41,387.94 L187.36,387.94 L187.36,379.76 Z" id="Shape" fill="#FFFFFF"></path>
            <polygon id="Shape" fill="#FFFFFF" points="260.21 363.59 260.21 403 250.8 403 250.8 383.35 240.51 403 234.51 403 224.16 383.24 224.16 403 214.75 403 214.75 363.59 224.27 363.59 237.51 388 250.74 363.6"></polygon>
            <path d="M306.49,403 L296.14,403 L293.38,395.83 L276.79,395.83 L274,403 L263.62,403 L280.08,363.61 L290,363.61 L306.49,403 Z M290.14,387.48 L285.08,374.55 L280.08,387.48 L290.14,387.48 Z" id="Shape" fill="#FFFFFF"></path>
            <polygon id="Shape" fill="#FFFFFF" points="338.71 372.06 325.95 372.06 325.95 403 316.31 403 316.31 372.06 303.55 372.06 303.55 363.59 338.71 363.59"></polygon>
        </g>
    </g>
</svg>