<?xml version="1.0" encoding="UTF-8"?>
<svg width="128px" height="128px" viewBox="0 0 512 512" version="1.1" xmlns="http://www.w3.org/2000/svg" xmlns:xlink="http://www.w3.org/1999/xlink">
    <!-- Generator: Sketch 46.2 (44496) - http://www.bohemiancoding.com/sketch -->
    <title>01</title>
    <desc>Created with Sketch.</desc>
    <defs>
        <linearGradient x1="101.085937%" y1="97.8730469%" x2="-4.74609375%" y2="-1.30273438%" id="linearGradient-1">
            <stop stop-color="#13AEEE" offset="0%"></stop>
            <stop stop-color="#927EE5" offset="100%"></stop>
        </linearGradient>
    </defs>
    <g id="Page-1" stroke="none" stroke-width="1" fill="none" fill-rule="evenodd">
        <g id="01" fill-rule="nonzero">
            <rect id="Rectangle-path" fill="url(#linearGradient-1)" x="0" y="0" width="512" height="512" rx="104"></rect>
            <path d="M202.83,183.69 L202.83,159.69 C215.601585,159.69 225.955,149.336585 225.955,136.565 C225.955,123.793415 215.601585,113.44 202.83,113.44 L202.83,89.44 C228.856419,89.44 249.955,110.538581 249.955,136.565 C249.955,162.591419 228.856419,183.69 202.83,183.69 L202.83,183.69 Z" id="Shape" fill="#6DC3F7"></path>
            <path d="M250,136.57 L226,136.57 C226,128.308233 221.5924,120.674045 214.4375,116.543162 C207.2826,112.412278 198.4674,112.412278 191.3125,116.543162 C184.1576,120.674045 179.75,128.308233 179.75,136.57 L155.75,136.57 C155.75,110.543581 176.848581,89.445 202.875,89.445 C228.901419,89.445 250,110.543581 250,136.57 L250,136.57 Z" id="Shape" fill="#66E9FF"></path>
            <polygon id="Shape" fill="#FFFFFF" points="215.02 210.66 191.02 210.66 191.02 159.29 215.02 156.21"></polygon>
            <rect id="Rectangle-path" fill="#FFFFFF" x="191.02" y="227.96" width="24" height="24.07"></rect>
            <path d="M187.36,379.76 L209.06,379.76 C209.224066,380.94956 209.304264,382.149187 209.3,383.35 C209.467825,388.848706 207.387937,394.17842 203.54,398.11 C199.661626,401.964443 194.365044,404.048345 188.9,403.87 C183.272474,403.985689 177.832198,401.847023 173.79,397.93 C169.887109,394.073907 167.685533,388.819014 167.674267,383.332496 C167.663001,377.845978 169.842978,372.582089 173.73,368.71 C177.699889,364.744071 183.120129,362.575974 188.73,362.71 C192.939705,362.635985 197.089459,363.714921 200.73,365.83 C204.106515,367.767728 206.672894,370.855901 207.96,374.53 L198.61,377.23 C196.67,373.47 193.376667,371.59 188.73,371.59 C185.6937,371.518212 182.768959,372.73534 180.68,374.94 C178.513697,377.168964 177.347615,380.183448 177.45,383.29 C177.379252,386.420259 178.563973,389.448681 180.74,391.7 C182.923774,393.886964 185.910461,395.080193 189,395 C194.12,395 197.94,392.35 199.41,387.94 L187.36,387.94 L187.36,379.76 Z" id="Shape" fill="#FFFFFF"></path>
            <polygon id="Shape" fill="#FFFFFF" points="260.21 363.59 260.21 403 250.8 403 250.8 383.35 240.51 403 234.51 403 224.16 383.24 224.16 403 214.75 403 214.75 363.59 224.27 363.59 237.51 388 250.74 363.6"></polygon>
            <path d="M306.49,403 L296.14,403 L293.38,395.83 L276.79,395.83 L274,403 L263.62,403 L280.08,363.61 L290,363.61 L306.49,403 Z M290.14,387.48 L285.08,374.55 L280.08,387.48 L290.14,387.48 Z" id="Shape" fill="#FFFFFF"></path>
            <polygon id="Shape" fill="#FFFFFF" points="338.71 372.06 325.95 372.06 325.95 403 316.31 403 316.31 372.06 303.55 372.06 303.55 363.59 338.71 363.59"></polygon>
            <rect id="Rectangle-path" fill="#FFFFFF" x="263.55" y="171.99" width="77.28" height="24"></rect>
            <rect id="Rectangle-path" fill="#66E9FF" x="263.55" y="228.03" width="125.29" height="24"></rect>
            <rect id="Rectangle-path" fill="#66E9FF" x="163.65" y="284.07" width="177.18" height="24"></rect>
        </g>
    </g>
</svg>