<?xml version="1.0" encoding="UTF-8"?>
<svg width="128px" height="128px" viewBox="0 0 512 513" version="1.1" xmlns="http://www.w3.org/2000/svg" xmlns:xlink="http://www.w3.org/1999/xlink">
    <title>ic_launcher copy</title>
    <defs>
        <linearGradient x1="-9.25%" y1="26.4882812%" x2="112.976563%" y2="74.9902344%" id="linearGradient-1">
            <stop stop-color="#92F7E5" offset="0%"></stop>
            <stop stop-color="#9CAEEE" offset="100%"></stop>
        </linearGradient>
    </defs>
    <g id="ic_launcher-copy" stroke="none" stroke-width="1" fill="none" fill-rule="evenodd" transform="translate(0.000000, 1.000000)">
        <g id="03" fill-rule="nonzero">
            <rect id="Rectangle-path" fill="url(#linearGradient-1)" x="0" y="0" width="512" height="512" rx="100"></rect>
            <path d="M102.64,400.048 L116.32,366.4 L107.968,366.4 L98.848,390.208 L89.776,366.4 L81.28,366.4 L94.912,400.048 L102.64,400.048 Z M135.088,400.576 C145.024,400.576 152.8,392.944 152.8,383.2 C152.8,373.456 145.024,365.824 135.088,365.824 C125.152,365.824 117.328,373.456 117.328,383.2 C117.328,392.944 125.152,400.576 135.088,400.576 Z M135.088,393.232 C129.616,393.232 125.248,389.056 125.248,383.2 C125.248,377.344 129.616,373.168 135.088,373.168 C140.512,373.168 144.928,377.344 144.928,383.2 C144.928,389.056 140.512,393.232 135.088,393.232 Z M175.408,400.576 C183.856,400.576 191.056,395.44 192.352,387.328 L184.384,387.328 C183.328,390.784 180.496,393.232 175.552,393.232 C169.84,393.232 165.568,389.104 165.568,383.2 C165.568,377.296 169.84,373.168 175.552,373.168 C180.496,373.168 183.328,375.616 184.384,379.072 L192.352,379.072 C191.056,370.96 183.856,365.824 175.408,365.824 C165.376,365.824 157.648,373.456 157.648,383.2 C157.648,392.944 165.376,400.576 175.408,400.576 Z M201.568,400 L204.256,393.136 L218.896,393.136 L221.632,400 L229.6,400 L215.488,366.352 L207.856,366.352 L193.696,400 L201.568,400 Z M216.16,386.176 L207.04,386.176 L211.6,374.704 L216.16,386.176 Z M249.136,400 C257.488,400 261.664,396.4 261.664,390.448 C261.664,386.464 259.216,383.536 256.048,382.864 C258.736,381.904 260.752,379.408 260.752,375.616 C260.752,370.048 256.624,366.4 248.272,366.4 L233.056,366.4 L233.056,400 L249.136,400 Z M247.792,379.84 L240.736,379.84 L240.736,372.88 L247.888,372.88 C251.248,372.88 252.88,373.84 252.88,376.24 C252.88,378.88 251.104,379.84 247.792,379.84 Z M248.512,393.568 L240.736,393.568 L240.736,386.32 L248.416,386.32 C252.064,386.32 253.744,387.376 253.744,389.92 C253.744,392.512 252.064,393.568 248.512,393.568 Z M281.104,400.576 C289.36,400.576 295.936,396.064 295.936,386.32 L295.936,366.4 L288.304,366.4 L288.304,385.408 C288.304,391.072 285.616,393.328 281.152,393.328 C276.688,393.328 274.048,391.072 274.048,385.408 L274.048,366.4 L266.32,366.4 L266.32,386.32 C266.32,396.064 272.896,400.576 281.104,400.576 Z M326.08,400 L326.08,393.04 L309.472,393.04 L309.472,366.4 L301.792,366.4 L301.792,400 L326.08,400 Z M335.776,400 L338.464,393.136 L353.104,393.136 L355.84,400 L363.808,400 L349.696,366.352 L342.064,366.352 L327.904,400 L335.776,400 Z M350.368,386.176 L341.248,386.176 L345.808,374.704 L350.368,386.176 Z M374.944,400 L374.944,389.296 L379.264,389.296 L387.376,400 L395.968,400 L387.328,388.72 C392.848,387.184 395.728,383.056 395.728,377.872 C395.728,371.248 391.36,366.4 382.72,366.4 L367.264,366.4 L367.264,400 L374.944,400 Z M382.048,382.528 L374.944,382.528 L374.944,373.264 L382.048,373.264 C385.84,373.264 387.808,374.944 387.808,377.872 C387.808,380.848 385.84,382.528 382.048,382.528 Z M417.664,400 L417.664,387.856 L430.864,366.4 L422.176,366.4 L413.872,380.656 L405.568,366.4 L396.784,366.4 L410.032,388 L410.032,400 L417.664,400 Z" id="VOCABULARY" fill="#2485CE"></path>
            <g id="graphics" transform="translate(116.000000, 126.000000)">
                <rect id="Rectangle-path" fill="#2485CE" x="152.8" y="42.58" width="107.16" height="24"></rect>
                <polygon id="Rectangle-path" fill="#2485CE" points="152.8 98.62 207.09 98.62 207.09 122.62 152.8 122.62"></polygon>
                <rect id="Rectangle-path" fill="#FFFFFF" x="52.91" y="154.66" width="177.18" height="24"></rect>
                <line x1="8.51" y1="44.85" x2="63.02" y2="99.36" id="Shape" fill="#83D6FF"></line>
                <rect id="Rectangle-path" fill="#2485CE" transform="translate(35.761914, 72.110864) rotate(-45.000000) translate(-35.761914, -72.110864) " x="23.761914" y="33.565864" width="24" height="77.09"></rect>
                <line x1="46.17" y1="99.69" x2="136.39" y2="9.47" id="Shape" fill="#83D6FF"></line>
                <rect id="Rectangle-path" fill="#66FFE2" transform="translate(91.281972, 54.566713) rotate(-45.000000) translate(-91.281972, -54.566713) " x="27.486972" y="42.566713" width="127.59" height="24"></rect>
            </g>
        </g>
    </g>
</svg>