<?xml version="1.0" encoding="UTF-8"?>
<svg width="128px" height="128px" viewBox="0 0 512 512" version="1.1" xmlns="http://www.w3.org/2000/svg" xmlns:xlink="http://www.w3.org/1999/xlink">
    <!-- Generator: Sketch 46.2 (44496) - http://www.bohemiancoding.com/sketch -->
    <title>03</title>
    <desc>Created with Sketch.</desc>
    <defs>
        <linearGradient x1="-9.25%" y1="26.4882812%" x2="112.976563%" y2="74.9902344%" id="linearGradient-1">
            <stop stop-color="#92F7E5" offset="0%"></stop>
            <stop stop-color="#9CAEEE" offset="100%"></stop>
        </linearGradient>
    </defs>
    <g id="Page-1" stroke="none" stroke-width="1" fill="none" fill-rule="evenodd">
        <g id="03" fill-rule="nonzero">
            <rect id="Rectangle-path" fill="url(#linearGradient-1)" x="0" y="0" width="512" height="512" rx="104"></rect>
            <polygon id="Shape" fill="#2485CE" points="200.11 368.64 187.35 368.64 187.35 399.57 177.71 399.57 177.71 368.64 165 368.64 165 360.17 200.16 360.17"></polygon>
            <path d="M237.62,394.51 C229.261539,402.430128 216.168461,402.430128 207.81,394.51 C203.932328,390.636705 201.753505,385.380762 201.753505,379.9 C201.753505,374.419238 203.932328,369.163295 207.81,365.29 C216.137869,357.293478 229.292131,357.293478 237.62,365.29 C241.532402,369.144753 243.735279,374.40764 243.735279,379.9 C243.735279,385.39236 241.532402,390.655247 237.62,394.51 L237.62,394.51 Z M230.8,371.51 C228.667802,369.365932 225.768788,368.160404 222.745,368.160404 C219.721212,368.160404 216.822198,369.365932 214.69,371.51 C212.521325,373.761815 211.356222,376.795412 211.46,379.92 C211.357615,383.026552 212.523697,386.041036 214.69,388.27 C219.162919,392.659682 226.327081,392.659682 230.8,388.27 C232.966303,386.041036 234.132385,383.026552 234.03,379.92 C234.128328,376.80227 232.963622,373.77692 230.8,371.53 L230.8,371.51 Z" id="Shape" fill="#2485CE"></path>
            <polygon id="Shape" fill="#2485CE" points="279.9 391.22 279.9 399.57 249.21 399.57 249.21 360.18 279.72 360.18 279.72 368.53 258.91 368.53 258.91 375.94 278 375.94 278 383.82 258.91 383.82 258.91 391.23"></polygon>
            <polygon id="Shape" fill="#2485CE" points="295.66 368.7 295.66 377 314.12 377 314.12 385.47 295.66 385.47 295.66 399.58 286 399.58 286 360.18 316.46 360.18 316.46 368.71"></polygon>
            <polygon id="Shape" fill="#2485CE" points="350.23 391.1 350.23 399.57 321.13 399.57 321.13 360.18 330.83 360.18 330.83 391.1"></polygon>
            <rect id="Rectangle-path" fill="#2485CE" x="268.8" y="168.58" width="107.16" height="24"></rect>
            <rect id="Rectangle-path" fill="#2485CE" x="268.8" y="224.62" width="54.29" height="24"></rect>
            <rect id="Rectangle-path" fill="#FFFFFF" x="168.91" y="280.66" width="177.18" height="24"></rect>
            <path d="M124.51,170.85 L179.02,225.36" id="Shape" fill="#83D6FF"></path>
            <rect id="Rectangle-path" fill="#2485CE" transform="translate(151.761914, 198.110864) rotate(-45.000000) translate(-151.761914, -198.110864) " x="139.761914" y="159.565864" width="24" height="77.09"></rect>
            <path d="M162.17,225.69 L252.39,135.47" id="Shape" fill="#83D6FF"></path>
            <rect id="Rectangle-path" fill="#66FFE2" transform="translate(207.281972, 180.566713) rotate(-45.000000) translate(-207.281972, -180.566713) " x="143.486972" y="168.566713" width="127.59" height="24"></rect>
        </g>
    </g>
</svg>