<?xml version="1.0" encoding="UTF-8"?>
<svg width="128px" height="128px" viewBox="0 0 512 512" version="1.1" xmlns="http://www.w3.org/2000/svg" xmlns:xlink="http://www.w3.org/1999/xlink">
    <!-- Generator: Sketch 46.2 (44496) - http://www.bohemiancoding.com/sketch -->
    <title>splash_logo</title>
    <desc>Created with Sketch.</desc>
    <defs>
        <linearGradient x1="-9.25%" y1="26.4882812%" x2="112.976563%" y2="74.9902344%" id="linearGradient-1">
            <stop stop-color="#92F7E5" offset="0%"></stop>
            <stop stop-color="#9CAEEE" offset="100%"></stop>
        </linearGradient>
    </defs>
    <g id="Page-1" stroke="none" stroke-width="1" fill="none" fill-rule="evenodd">
        <g id="splash_logo">
            <g id="Group-3">
                <g id="03"></g>
                <rect id="Rectangle-path" fill-opacity="0.98" fill="url(#linearGradient-1)" fill-rule="nonzero" x="0" y="0" width="512" height="512" rx="104"></rect>
                <path d="M114.632812,402 L125.414062,368.179688 L115.992188,368.179688 L109.5,393.585938 L109.3125,393.585938 L102.796875,368.179688 L93.0234375,368.179688 L103.804688,402 L114.632812,402 Z M143.695312,367.59375 C153.9375,367.59375 160.382812,374.320312 160.382812,385.101562 C160.382812,395.882812 153.9375,402.585938 143.695312,402.585938 C133.429688,402.585938 126.984375,395.882812 126.984375,385.101562 C126.984375,374.320312 133.453125,367.59375 143.695312,367.59375 Z M143.695312,374.578125 C138.890625,374.578125 135.75,378.65625 135.75,385.101562 C135.75,391.523438 138.867188,395.601562 143.695312,395.601562 C148.5,395.601562 151.640625,391.523438 151.640625,385.101562 C151.640625,378.65625 148.5,374.578125 143.695312,374.578125 Z M180.070312,402.585938 C188.789062,402.585938 195.023438,397.289062 195.421875,389.25 L187.148438,389.25 C186.609375,393.210938 183.867188,395.695312 180.09375,395.695312 C175.359375,395.695312 172.40625,391.6875 172.40625,385.054688 C172.40625,378.492188 175.382812,374.484375 180.070312,374.484375 C183.84375,374.484375 186.679688,377.109375 187.101562,381.09375 L195.375,381.09375 C195.117188,373.101562 188.625,367.59375 180.070312,367.59375 C169.992188,367.59375 163.640625,374.039062 163.640625,385.078125 C163.640625,396.140625 169.945312,402.585938 180.070312,402.585938 Z M219.914062,402 L217.78125,394.570312 L206.71875,394.570312 L204.5625,402 L195.796875,402 L207.164062,368.179688 L217.6875,368.179688 L229.054688,402 L219.914062,402 Z M212.15625,375.351562 L208.382812,388.382812 L216.09375,388.382812 L212.34375,375.351562 L212.15625,375.351562 Z M248.4375,402 L232.289062,402 L232.289062,368.179688 L248.015625,368.179688 C254.671875,368.179688 258.679688,371.390625 258.679688,376.617188 C258.679688,380.414062 255.820312,383.4375 252.070312,383.953125 L252.070312,384.140625 C256.640625,384.351562 260.25,387.75 260.25,392.25 C260.25,398.179688 255.679688,402 248.4375,402 Z M240.890625,374.273438 L240.890625,381.960938 L245.320312,381.960938 C248.4375,381.960938 250.3125,380.484375 250.3125,378.046875 C250.3125,375.679688 248.625,374.273438 245.742188,374.273438 L240.890625,374.273438 Z M240.890625,395.90625 L246,395.90625 C249.539062,395.90625 251.507812,394.359375 251.507812,391.5 C251.507812,388.734375 249.492188,387.1875 245.953125,387.1875 L240.890625,387.1875 L240.890625,395.90625 Z M272.484375,368.179688 L263.882812,368.179688 L263.882812,390 C263.882812,397.59375 269.648438,402.585938 278.460938,402.585938 C287.25,402.585938 293.015625,397.59375 293.015625,390 L293.015625,368.179688 L284.414062,368.179688 L284.414062,389.085938 C284.414062,393.023438 282.28125,395.367188 278.460938,395.367188 C274.617188,395.367188 272.484375,393.023438 272.484375,389.085938 L272.484375,368.179688 Z M320.71875,395.0625 L306.726562,395.0625 L306.726562,368.179688 L298.125,368.179688 L298.125,402 L320.71875,402 L320.71875,395.0625 Z M346.898438,402 L344.765625,394.570312 L333.703125,394.570312 L331.546875,402 L322.78125,402 L334.148438,368.179688 L344.671875,368.179688 L356.039062,402 L346.898438,402 Z M339.140625,375.351562 L335.367188,388.382812 L343.078125,388.382812 L339.328125,375.351562 L339.140625,375.351562 Z M367.875,374.671875 L367.875,384.28125 L372.914062,384.28125 C376.078125,384.28125 377.953125,382.429688 377.953125,379.5 C377.953125,376.617188 375.960938,374.671875 372.890625,374.671875 L367.875,374.671875 Z M367.875,390.164062 L367.875,402 L359.273438,402 L359.273438,368.179688 L373.757812,368.179688 C382.195312,368.179688 386.742188,372.351562 386.742188,379.335938 C386.742188,383.484375 384.65625,387.28125 380.953125,388.898438 L387.726562,402 L378.070312,402 L372.257812,390.164062 L367.875,390.164062 Z M408.328125,402 L408.328125,390.375 L419.976562,368.179688 L410.90625,368.179688 L404.203125,382.242188 L404.039062,382.242188 L397.3125,368.179688 L388.078125,368.179688 L399.726562,390.375 L399.726562,402 L408.328125,402 Z" id="VOCABULARY" fill="#2485CE"></path>
                <rect id="Rectangle-path" fill="#2485CE" fill-rule="nonzero" x="268.8" y="168.58" width="107.16" height="24"></rect>
                <rect id="Rectangle-path" fill="#2485CE" fill-rule="nonzero" x="268.8" y="224.62" width="54.29" height="24"></rect>
                <rect id="Rectangle-path" fill="#FFFFFF" fill-rule="nonzero" x="168.91" y="280.66" width="177.18" height="24"></rect>
                <path d="M124.51,170.85 L179.02,225.36" id="Shape" fill="#83D6FF" fill-rule="nonzero"></path>
                <rect id="Rectangle-path" fill="#2485CE" fill-rule="nonzero" transform="translate(151.761914, 198.110864) rotate(-45.000000) translate(-151.761914, -198.110864) " x="139.761914" y="159.565864" width="24" height="77.09"></rect>
                <path d="M162.17,225.69 L252.39,135.47" id="Shape" fill="#83D6FF" fill-rule="nonzero"></path>
                <rect id="Rectangle-path" fill="#66FFE2" fill-rule="nonzero" transform="translate(207.281972, 180.566713) rotate(-45.000000) translate(-207.281972, -180.566713) " x="143.486972" y="168.566713" width="127.59" height="24"></rect>
            </g>
        </g>
    </g>
</svg>