<?xml version="1.0" encoding="UTF-8"?>
<svg width="128px" height="128px" viewBox="0 0 512 512" version="1.1" xmlns="http://www.w3.org/2000/svg" xmlns:xlink="http://www.w3.org/1999/xlink">
    <!-- Generator: Sketch 46.2 (44496) - http://www.bohemiancoding.com/sketch -->
    <title>vrb</title>
    <desc>Created with Sketch.</desc>
    <defs>
        <linearGradient x1="16.4472656%" y1="116.664063%" x2="66.1699219%" y2="17.8730469%" id="linearGradient-1">
            <stop stop-color="#92F7E5" offset="0%"></stop>
            <stop stop-color="#53BEE6" offset="100%"></stop>
        </linearGradient>
    </defs>
    <g id="Page-1" stroke="none" stroke-width="1" fill="none" fill-rule="evenodd">
        <g id="vrb" fill-rule="nonzero">
            <rect id="Rectangle-path" fill="url(#linearGradient-1)" x="0" y="0" width="512" height="512" rx="104"></rect>
            <g id="Group" transform="translate(76.000000, 122.000000)">
                <rect id="Rectangle-path" fill="#2485CE" x="203.267207" y="73.6648972" width="132.374118" height="29.75"></rect>
                <polygon id="Shape" fill="#FFFFFF" points="155.486031 161.675314 123.454854 237.227918 105.592501 237.227918 73.5613249 161.675314 94.0177955 161.675314 114.474266 211.742085 135.041913 161.675314"></polygon>
                <path d="M231.506031,237.215522 L209.147207,237.215522 L186.454854,211.283439 L181.031913,211.283439 L181.031913,237.215522 L162.502501,237.215522 L162.502501,161.675314 L200.598972,161.675314 C208.801325,161.675314 215.323678,163.931356 220.264854,168.555001 C225.206031,173.178647 227.676619,179.041876 227.676619,186.367814 C227.676619,198.664481 220.153678,207.676251 207.911913,210.390939 L231.506031,237.215522 Z M181.031913,195.726668 L198.560737,195.726668 C205.194266,195.726668 209.456031,192.119481 209.456031,186.590939 C209.456031,181.062397 205.181913,177.566772 198.560737,177.566772 L181.031913,177.566772 L181.031913,195.726668 Z" id="Shape" fill="#FFFFFF"></path>
                <path d="M288.53956,198.652085 C296.297207,199.209897 303.02956,205.531772 303.02956,216.006251 C303.02956,228.972293 294.258972,237.203126 278.200148,237.203126 L239.090737,237.203126 L239.090737,161.675314 L278.088972,161.675314 C291.911913,161.675314 300.904854,169.794585 300.904854,182.314376 C301.099846,186.442931 299.691712,190.486491 296.976619,193.594585 C294.839901,196.134476 291.835825,197.783173 288.551913,198.218231 L288.53956,198.652085 Z M257.657207,176.661876 L257.657207,192.900418 L273.83956,192.900418 C279.348972,192.900418 282.943678,189.516356 282.943678,184.44646 C282.943678,179.822814 279.348972,176.661876 274.518972,176.661876 L257.657207,176.661876 Z M257.657207,222.216564 L274.951325,222.216564 C280.794266,222.216564 284.166619,219.055626 284.166619,213.762606 C284.166619,208.804272 280.571913,205.643335 275.284854,205.643335 L257.632501,205.643335 L257.657207,222.216564 Z" id="Shape" fill="#FFFFFF"></path>
                <path d="M7.78235294,44.4390625 L75.1182353,112.00875" id="Shape" fill="#83D6FF"></path>
                <rect id="Rectangle-path" fill="#2485CE" transform="translate(44.829263, 110.530988) rotate(-45.000000) translate(-44.829263, -110.530988) " x="30.0057339" y="62.7512486" width="29.6470588" height="95.5594792"></rect>
                <path d="M54.3035294,112.417812 L165.751765,0.582604167" id="Shape" fill="#83D6FF"></path>
                <rect id="Rectangle-path" fill="#66FFE2" transform="translate(113.825932, 89.277645) rotate(-45.000000) translate(-113.825932, -89.277645) " x="35.0203436" y="74.4026452" width="157.611176" height="29.75"></rect>
            </g>
        </g>
    </g>
</svg>
