<?xml version="1.0" encoding="UTF-8"?>
<svg width="128px" height="128px" viewBox="0 0 512 512" version="1.1" xmlns="http://www.w3.org/2000/svg" xmlns:xlink="http://www.w3.org/1999/xlink">
    <!-- Generator: Sketch 46.2 (44496) - http://www.bohemiancoding.com/sketch -->
    <title>05</title>
    <desc>Created with Sketch.</desc>
    <defs>
        <linearGradient x1="16.4472656%" y1="116.664063%" x2="66.1699219%" y2="17.8730469%" id="linearGradient-1">
            <stop stop-color="#92F7E5" offset="0%"></stop>
            <stop stop-color="#53BEE6" offset="100%"></stop>
        </linearGradient>
    </defs>
    <g id="Page-1" stroke="none" stroke-width="1" fill="none" fill-rule="evenodd">
        <g id="05" fill-rule="nonzero">
            <rect id="Rectangle-path" fill="url(#linearGradient-1)" x="0" y="0" width="512" height="512" rx="104"></rect>
            <rect id="Rectangle-path" fill="#2485CE" x="269.73" y="168.58" width="107.16" height="24"></rect>
            <polygon id="Shape" fill="#FFFFFF" points="231.09 238.69 205.16 299.64 190.7 299.64 164.77 238.69 181.33 238.69 197.89 279.08 214.54 238.69"></polygon>
            <path d="M292.86,299.63 L274.76,299.63 L256.39,278.71 L252,278.71 L252,299.63 L237,299.63 L237,238.69 L267.84,238.69 C274.48,238.69 279.76,240.51 283.76,244.24 C287.76,247.97 289.76,252.7 289.76,258.61 C289.76,268.53 283.67,275.8 273.76,277.99 L292.86,299.63 Z M252,266.16 L266.19,266.16 C271.56,266.16 275.01,263.25 275.01,258.79 C275.01,254.33 271.55,251.51 266.19,251.51 L252,251.51 L252,266.16 Z" id="Shape" fill="#FFFFFF"></path>
            <path d="M338.8,268.52 C345.08,268.97 350.53,274.07 350.53,282.52 C350.53,292.98 343.43,299.62 330.43,299.62 L298.77,299.62 L298.77,238.69 L330.34,238.69 C341.53,238.69 348.81,245.24 348.81,255.34 C348.96785,258.6706 347.827932,261.93263 345.63,264.44 C343.900276,266.488988 341.468405,267.819029 338.81,268.17 L338.8,268.52 Z M313.8,250.78 L313.8,263.88 L326.9,263.88 C331.36,263.88 334.27,261.15 334.27,257.06 C334.27,253.33 331.36,250.78 327.45,250.78 L313.8,250.78 Z M313.8,287.53 L327.8,287.53 C332.53,287.53 335.26,284.98 335.26,280.71 C335.26,276.71 332.35,274.16 328.07,274.16 L313.78,274.16 L313.8,287.53 Z" id="Shape" fill="#FFFFFF"></path>
            <path d="M114.3,170.85 L168.81,225.36" id="Shape" fill="#83D6FF"></path>
            <rect id="Rectangle-path" fill="#2485CE" transform="translate(141.552354, 198.110424) rotate(-45.000000) translate(-141.552354, -198.110424) " x="129.552354" y="159.565424" width="24" height="77.09"></rect>
            <path d="M151.96,225.69 L242.18,135.47" id="Shape" fill="#83D6FF"></path>
            <rect id="Rectangle-path" fill="#66FFE2" transform="translate(197.072411, 180.576274) rotate(-45.000000) translate(-197.072411, -180.576274) " x="133.277411" y="168.576274" width="127.59" height="24"></rect>
            <polygon id="Shape" fill="#2485CE" points="200.11 368.64 187.35 368.64 187.35 399.57 177.71 399.57 177.71 368.64 165 368.64 165 360.17 200.16 360.17"></polygon>
            <path d="M237.62,394.51 C229.261539,402.430128 216.168461,402.430128 207.81,394.51 C203.932328,390.636705 201.753505,385.380762 201.753505,379.9 C201.753505,374.419238 203.932328,369.163295 207.81,365.29 C216.137869,357.293478 229.292131,357.293478 237.62,365.29 C241.532402,369.144753 243.735279,374.40764 243.735279,379.9 C243.735279,385.39236 241.532402,390.655247 237.62,394.51 L237.62,394.51 Z M230.8,371.51 C228.667802,369.365932 225.768788,368.160404 222.745,368.160404 C219.721212,368.160404 216.822198,369.365932 214.69,371.51 C212.521325,373.761815 211.356222,376.795412 211.46,379.92 C211.357615,383.026552 212.523697,386.041036 214.69,388.27 C219.162919,392.659682 226.327081,392.659682 230.8,388.27 C232.966303,386.041036 234.132385,383.026552 234.03,379.92 C234.128328,376.80227 232.963622,373.77692 230.8,371.53 L230.8,371.51 Z" id="Shape" fill="#2485CE"></path>
            <polygon id="Shape" fill="#2485CE" points="279.9 391.22 279.9 399.57 249.21 399.57 249.21 360.18 279.72 360.18 279.72 368.53 258.91 368.53 258.91 375.94 278 375.94 278 383.82 258.91 383.82 258.91 391.23"></polygon>
            <polygon id="Shape" fill="#2485CE" points="295.66 368.7 295.66 377 314.12 377 314.12 385.47 295.66 385.47 295.66 399.58 286 399.58 286 360.18 316.46 360.18 316.46 368.71"></polygon>
            <polygon id="Shape" fill="#2485CE" points="350.23 391.1 350.23 399.57 321.13 399.57 321.13 360.18 330.83 360.18 330.83 391.1"></polygon>
        </g>
    </g>
</svg>